<svg width="1440" height="1146" viewBox="0 0 1440 1146" fill="none" xmlns="http://www.w3.org/2000/svg">
<rect y="-2" width="1440" height="1148" fill="white"/>
<path d="M255.039 0L272.869 21.9418C274.393 23.8176 275.225 26.1609 275.225 28.5779V98.6946M275.225 98.6946H261.095M275.225 98.6946H289.356M275.225 105.534V211.585C275.225 214.121 276.141 216.571 277.804 218.485L301.468 245.729M275.225 105.534H261.095M275.225 105.534H289.356M301.468 245.729C294.066 254.088 305.549 268.225 314.925 259.151M301.468 245.729C310.137 235.939 325.019 249.383 314.925 259.151M314.925 259.151C315.686 258.415 314.348 259.71 314.925 259.151ZM314.925 259.151L362.7 307.498M362.7 307.498L356.644 313.913M362.7 307.498L368.756 300.469M367.41 311.897L454.885 400.15M367.41 311.897L361.354 318.619M367.41 311.897L373.466 305.175M454.885 400.15C445.464 410.892 460.268 427.005 471.034 416.263M454.885 400.15C463.632 390.175 483.819 403.507 471.034 416.263M471.034 416.263L543.322 487.747C545.292 489.695 547.95 490.788 550.721 490.788H720M74.0339 0V72.4266C74.0339 75.0706 75.0293 77.6178 76.822 79.5612L122.481 129.061M122.481 129.061L129.21 123.683M122.481 129.061L117.098 133.943M120.463 139.65L126.855 133.943M133.247 128.236L126.855 133.943M126.855 133.943L178.331 183.961M178.331 183.961C162.181 204.775 188.23 226.63 204.573 210.817M178.331 183.961C190.442 163.82 226.778 189.333 204.573 210.817M204.573 210.817L319.381 329.954C321.271 331.915 322.327 334.532 322.327 337.255V360.537M322.327 360.537C312.234 360.537 312.234 375.979 322.327 375.979M322.327 360.537C334.439 360.537 334.439 375.979 322.327 375.979M322.327 375.979L323.596 443.696C323.645 446.346 324.693 448.88 326.531 450.791L386.924 513.615M386.924 513.615L397.545 503.54C398.374 502.754 399.679 502.773 400.485 503.582L408.988 512.122C409.809 512.946 409.805 514.28 408.98 515.1L399.036 524.981M386.924 513.615L377.664 522.235C376.827 523.014 376.765 524.32 377.526 525.174L381.541 529.687L386.786 534.403C387.618 535.151 388.889 535.117 389.681 534.327L399.036 524.981M399.036 524.981L489.202 603.628M-74 0L-4.69321 69.8248M-4.69321 69.8248L-16.1322 79.9908M-4.69321 69.8248L6.07289 59.825M1.36272 76.5387L123.853 201.707C125.777 203.673 126.855 206.315 126.855 209.067V251.772M1.36272 76.5387L-9.40338 86.7127M1.36272 76.5387L12.1288 66.5469M126.855 251.772H115.838C114.676 251.772 113.734 252.714 113.734 253.877V273.166C113.734 274.328 114.676 275.271 115.838 275.271H126.855M126.855 251.772H137.872C139.034 251.772 139.976 252.714 139.976 253.877V273.166C139.976 274.328 139.034 275.271 137.872 275.271H126.855M126.855 275.271V362.238C126.855 365.019 127.956 367.687 129.917 369.658L257.058 497.501M257.058 497.501L250.649 503.363C249.748 504.187 249.735 505.601 250.619 506.442L261.701 516.972C262.498 517.73 263.744 517.745 264.56 517.008L270.179 511.936M257.058 497.501L262.377 492.725C263.178 492.005 264.393 492.007 265.193 492.729L276.271 502.73C277.166 503.537 277.201 504.93 276.347 505.782L270.179 511.936M270.179 511.936L365.392 603.628" stroke="black" stroke-opacity="0.15" stroke-width="0.5" stroke-linecap="round"/>
<path d="M73.028 432.733L109.364 467.646M109.364 467.646C102.635 475.031 110.986 487.787 120.13 480.402M109.364 467.646C116.092 459.589 131.569 470.331 120.13 480.402M120.13 480.402L202.894 562.312M202.894 562.312C193.474 573.054 206.965 591.853 220.389 579.097M202.894 562.312C212.987 552.241 233.813 566.34 220.389 579.097M220.389 579.097L288.188 651.255C290.021 653.206 291.042 655.783 291.042 658.46V689.876M291.042 689.876H280.276M291.042 689.876H300.462M291.042 697.807V740.088C291.042 742.768 292.063 745.346 293.899 747.297L383.899 843M291.042 697.807H280.276M291.042 697.807H300.462M71.0094 562.312L119.826 612.285C121.746 614.251 122.821 616.89 122.821 619.638V654.293M122.821 654.293C97.9247 654.293 97.9247 689.876 122.821 689.876M122.821 654.293C147.718 654.293 151.082 689.876 122.821 689.876M122.821 689.876L126.186 771.786M126.186 771.786C114.074 771.786 112.055 792.599 126.186 792.599C140.316 792.599 142.335 771.786 126.186 771.786Z" stroke="black" stroke-opacity="0.15" stroke-width="0.5" stroke-linecap="round"/>
<path d="M1184.96 0L1167.13 21.9418C1165.61 23.8176 1164.77 26.1609 1164.77 28.5779V98.6946M1164.77 98.6946H1178.91M1164.77 98.6946H1150.64M1164.77 105.534V211.585C1164.77 214.121 1163.86 216.571 1162.2 218.485L1138.53 245.729M1164.77 105.534H1178.91M1164.77 105.534H1150.64M1138.53 245.729C1145.93 254.088 1134.45 268.225 1125.07 259.151M1138.53 245.729C1129.86 235.939 1114.98 249.383 1125.07 259.151M1125.07 259.151C1124.31 258.415 1125.65 259.71 1125.07 259.151ZM1125.07 259.151L1077.3 307.498M1077.3 307.498L1083.36 313.913M1077.3 307.498L1071.24 300.469M1072.59 311.897L985.115 400.15M1072.59 311.897L1078.65 318.619M1072.59 311.897L1066.53 305.175M985.115 400.15C994.536 410.892 979.732 427.005 968.966 416.263M985.115 400.15C976.368 390.175 956.181 403.507 968.966 416.263M968.966 416.263L896.678 487.747C894.708 489.695 892.05 490.788 889.279 490.788H720M1365.97 0V72.4266C1365.97 75.0706 1364.97 77.6178 1363.18 79.5612L1317.52 129.061M1317.52 129.061L1310.79 123.683M1317.52 129.061L1322.9 133.943M1319.54 139.65L1313.14 133.943M1306.75 128.236L1313.14 133.943M1313.14 133.943L1261.67 183.961M1261.67 183.961C1277.82 204.775 1251.77 226.63 1235.43 210.817M1261.67 183.961C1249.56 163.82 1213.22 189.333 1235.43 210.817M1235.43 210.817L1120.62 329.954C1118.73 331.915 1117.67 334.532 1117.67 337.255V360.537M1117.67 360.537C1127.77 360.537 1127.77 375.98 1117.67 375.98M1117.67 360.537C1105.56 360.537 1105.56 375.98 1117.67 375.98M1117.67 375.98L1116.4 443.696C1116.35 446.346 1115.31 448.88 1113.47 450.791L1053.08 513.615M1053.08 513.615L1042.45 503.54C1041.63 502.754 1040.32 502.773 1039.52 503.582L1031.01 512.122C1030.19 512.946 1030.19 514.28 1031.02 515.1L1040.96 524.981M1053.08 513.615L1062.34 522.235C1063.17 523.014 1063.23 524.32 1062.47 525.174L1058.46 529.687L1053.21 534.403C1052.38 535.151 1051.11 535.117 1050.32 534.327L1040.96 524.981M1040.96 524.981L950.798 603.628M1514 0L1444.69 69.8248M1444.69 69.8248L1456.13 79.9908M1444.69 69.8248L1433.93 59.825M1438.64 76.5387L1316.15 201.707C1314.22 203.673 1313.14 206.315 1313.14 209.067V251.772M1438.64 76.5387L1449.4 86.7127M1438.64 76.5387L1427.87 66.5469M1313.14 251.772H1324.16C1325.32 251.772 1326.27 252.714 1326.27 253.877V273.166C1326.27 274.329 1325.32 275.271 1324.16 275.271H1313.14M1313.14 251.772H1302.13C1300.97 251.772 1300.02 252.714 1300.02 253.877V273.166C1300.02 274.329 1300.97 275.271 1302.13 275.271H1313.14M1313.14 275.271V362.238C1313.14 365.019 1312.04 367.687 1310.08 369.658L1182.94 497.501M1182.94 497.501L1189.35 503.363C1190.25 504.187 1190.27 505.601 1189.38 506.442L1178.3 516.972C1177.5 517.73 1176.26 517.745 1175.44 517.008L1169.82 511.936M1182.94 497.501L1177.62 492.725C1176.82 492.005 1175.61 492.007 1174.81 492.729L1163.73 502.73C1162.83 503.537 1162.8 504.93 1163.65 505.782L1169.82 511.936M1169.82 511.936L1074.61 603.628" stroke="black" stroke-opacity="0.15" stroke-width="0.5" stroke-linecap="round"/>
<path d="M1366.97 432.733L1330.64 467.646M1330.64 467.646C1337.37 475.031 1329.01 487.787 1319.87 480.402M1330.64 467.646C1323.91 459.589 1308.43 470.331 1319.87 480.402M1319.87 480.402L1237.11 562.312M1237.11 562.312C1246.53 573.054 1233.04 591.853 1219.61 579.097M1237.11 562.312C1227.01 552.241 1206.19 566.34 1219.61 579.097M1219.61 579.097L1151.81 651.255C1149.98 653.206 1148.96 655.783 1148.96 658.46V689.876M1148.96 689.876H1159.72M1148.96 689.876H1139.54M1148.96 697.807V740.088C1148.96 742.768 1147.94 745.346 1146.1 747.297L1056.1 843M1148.96 697.807H1159.72M1148.96 697.807H1139.54M1368.99 562.312L1320.17 612.285C1318.25 614.251 1317.18 616.89 1317.18 619.638V654.293M1317.18 654.293C1342.08 654.293 1342.08 689.876 1317.18 689.876M1317.18 654.293C1292.28 654.293 1288.92 689.876 1317.18 689.876M1317.18 689.876L1313.81 771.786M1313.81 771.786C1325.93 771.786 1327.94 792.599 1313.81 792.599C1299.68 792.599 1297.67 771.786 1313.81 771.786Z" stroke="black" stroke-opacity="0.15" stroke-width="0.5" stroke-linecap="round"/>
</svg>
